<?xml version="1.0" encoding="UTF-8" standalone="no"?>
<!DOCTYPE svg PUBLIC "-//W3C//DTD SVG 1.1//EN"
 "http://www.w3.org/Graphics/SVG/1.1/DTD/svg11.dtd">
<!-- Generated by graphviz version 2.40.1 (20161225.0304)
 -->
<!-- Title: dependencies Pages: 1 -->
<svg width="732pt" height="284pt"
 viewBox="0.00 0.00 732.00 284.00" xmlns="http://www.w3.org/2000/svg" xmlns:xlink="http://www.w3.org/1999/xlink">
<g id="graph0" class="graph" transform="scale(1 1) rotate(0) translate(4 280)">
<title>dependencies</title>
<polygon fill="#ffffff" stroke="transparent" points="-4,4 -4,-280 728,-280 728,4 -4,4"/>
<text text-anchor="start" x="341.0091" y="-42.4" font-family="sans-serif" font-weight="bold" font-size="14.00" fill="#000000">Legend</text>
<polygon fill="#ffffb3" stroke="transparent" points="128,-10 128,-30 148,-30 148,-10 128,-10"/>
<text text-anchor="start" x="151.629" y="-15.4" font-family="sans-serif" font-size="14.00" fill="#000000"> &#160;Declarations</text>
<polygon fill="#8dd3c7" stroke="transparent" points="241,-10 241,-30 261,-30 261,-10 241,-10"/>
<text text-anchor="start" x="264.7251" y="-15.4" font-family="sans-serif" font-size="14.00" fill="#000000"> &#160;Module</text>
<polygon fill="#80b1d3" stroke="transparent" points="327,-10 327,-30 347,-30 347,-10 327,-10"/>
<text text-anchor="start" x="350.7812" y="-15.4" font-family="sans-serif" font-size="14.00" fill="#000000"> &#160;Bootstrap</text>
<polygon fill="#fdb462" stroke="transparent" points="424,-10 424,-30 444,-30 444,-10 424,-10"/>
<text text-anchor="start" x="447.6732" y="-15.4" font-family="sans-serif" font-size="14.00" fill="#000000"> &#160;Providers</text>
<polygon fill="#fb8072" stroke="transparent" points="520,-10 520,-30 540,-30 540,-10 520,-10"/>
<text text-anchor="start" x="543.7258" y="-15.4" font-family="sans-serif" font-size="14.00" fill="#000000"> &#160;Exports</text>
<g id="clust1" class="cluster">
<title>cluster_AppModule</title>
<polygon fill="none" stroke="#000000" stroke-dasharray="1,5" points="8,-70 8,-268 716,-268 716,-70 8,-70"/>
</g>
<g id="clust2" class="cluster">
<title>cluster_AppModule_declarations</title>
<polygon fill="none" stroke="#000000" points="214,-78 214,-130 708,-130 708,-78 214,-78"/>
</g>
<g id="clust8" class="cluster">
<title>cluster_AppModule_bootstrap</title>
<polygon fill="none" stroke="#000000" points="347,-208 347,-260 471,-260 471,-208 347,-208"/>
</g>
<g id="clust9" class="cluster">
<title>cluster_AppModule_providers</title>
<polygon fill="none" stroke="#000000" points="16,-78 16,-130 206,-130 206,-78 16,-78"/>
</g>
<!-- AppComponent -->
<g id="node1" class="node">
<title>AppComponent</title>
<polygon fill="#ffffb3" stroke="#000000" points="699.9399,-122 594.0601,-122 594.0601,-86 699.9399,-86 699.9399,-122"/>
<text text-anchor="middle" x="647" y="-99.8" font-family="Times,serif" font-size="14.00" fill="#000000">AppComponent</text>
</g>
<!-- AppModule -->
<g id="node4" class="node">
<title>AppModule</title>
<polygon fill="#8dd3c7" stroke="#000000" points="450.6571,-187 447.6571,-191 426.6571,-191 423.6571,-187 367.3429,-187 367.3429,-151 450.6571,-151 450.6571,-187"/>
<text text-anchor="middle" x="409" y="-164.8" font-family="Times,serif" font-size="14.00" fill="#000000">AppModule</text>
</g>
<!-- AppComponent&#45;&gt;AppModule -->
<g id="edge1" class="edge">
<title>AppComponent&#45;&gt;AppModule</title>
<path fill="none" stroke="#000000" d="M647,-122.1061C647,-141.3391 647,-169 647,-169 647,-169 460.7288,-169 460.7288,-169"/>
<polygon fill="#000000" stroke="#000000" points="460.7288,-165.5001 450.7288,-169 460.7287,-172.5001 460.7288,-165.5001"/>
</g>
<!-- NotificationComponent -->
<g id="node2" class="node">
<title>NotificationComponent</title>
<polygon fill="#ffffb3" stroke="#000000" points="576.4818,-122 427.5182,-122 427.5182,-86 576.4818,-86 576.4818,-122"/>
<text text-anchor="middle" x="502" y="-99.8" font-family="Times,serif" font-size="14.00" fill="#000000">NotificationComponent</text>
</g>
<!-- NotificationComponent&#45;&gt;AppModule -->
<g id="edge2" class="edge">
<title>NotificationComponent&#45;&gt;AppModule</title>
<path fill="none" stroke="#000000" d="M439.1687,-122.1061C439.1687,-122.1061 439.1687,-140.991 439.1687,-140.991"/>
<polygon fill="#000000" stroke="#000000" points="435.6687,-140.9909 439.1687,-150.991 442.6687,-140.991 435.6687,-140.9909"/>
</g>
<!-- MockNotificationsComponent -->
<g id="node3" class="node">
<title>MockNotificationsComponent</title>
<polygon fill="#ffffb3" stroke="#000000" points="409.5856,-122 222.4144,-122 222.4144,-86 409.5856,-86 409.5856,-122"/>
<text text-anchor="middle" x="316" y="-99.8" font-family="Times,serif" font-size="14.00" fill="#000000">MockNotificationsComponent</text>
</g>
<!-- MockNotificationsComponent&#45;&gt;AppModule -->
<g id="edge3" class="edge">
<title>MockNotificationsComponent&#45;&gt;AppModule</title>
<path fill="none" stroke="#000000" d="M388.3573,-122.1061C388.3573,-122.1061 388.3573,-140.991 388.3573,-140.991"/>
<polygon fill="#000000" stroke="#000000" points="384.8574,-140.9909 388.3573,-150.991 391.8574,-140.991 384.8574,-140.9909"/>
</g>
<!-- AppComponent  -->
<g id="node5" class="node">
<title>AppComponent </title>
<polygon fill="#80b1d3" stroke="#000000" points="463.439,-252 354.561,-252 354.561,-216 463.439,-216 463.439,-252"/>
<text text-anchor="middle" x="409" y="-229.8" font-family="Times,serif" font-size="14.00" fill="#000000">AppComponent </text>
</g>
<!-- AppModule&#45;&gt;AppComponent  -->
<g id="edge4" class="edge">
<title>AppModule&#45;&gt;AppComponent </title>
<path fill="none" stroke="#000000" stroke-dasharray="1,5" d="M409,-187.1061C409,-187.1061 409,-205.991 409,-205.991"/>
<polygon fill="#000000" stroke="#000000" points="405.5001,-205.9909 409,-215.991 412.5001,-205.991 405.5001,-205.9909"/>
</g>
<!-- NotificationService -->
<g id="node6" class="node">
<title>NotificationService</title>
<ellipse fill="#fdb462" stroke="#000000" cx="111" cy="-104" rx="86.8107" ry="18"/>
<text text-anchor="middle" x="111" y="-99.8" font-family="Times,serif" font-size="14.00" fill="#000000">NotificationService</text>
</g>
<!-- NotificationService&#45;&gt;AppModule -->
<g id="edge5" class="edge">
<title>NotificationService&#45;&gt;AppModule</title>
<path fill="none" stroke="#000000" d="M111,-122.1061C111,-141.3391 111,-169 111,-169 111,-169 357.2506,-169 357.2506,-169"/>
<polygon fill="#000000" stroke="#000000" points="357.2506,-172.5001 367.2506,-169 357.2506,-165.5001 357.2506,-172.5001"/>
</g>
</g>
</svg>
